#define backward20x20_width 20
#define backward20x20_height 20
static unsigned char backward20x20_bits[] = {
   0x00, 0x00, 0x00, 0x80, 0x3f, 0x00, 0x80, 0x3f, 0x00, 0x80, 0x3f, 0x00,
   0x80, 0x3f, 0x00, 0x80, 0x3f, 0x00, 0x80, 0x3f, 0x00, 0x80, 0x3f, 0x00,
   0x80, 0x3f, 0x00, 0x80, 0x3f, 0x00, 0x80, 0x3f, 0x00, 0x80, 0x3f, 0x00,
   0xf0, 0xff, 0x01, 0xe0, 0xff, 0x00, 0xc0, 0x7f, 0x00, 0x80, 0x3f, 0x00,
   0x00, 0x1f, 0x00, 0x00, 0x0e, 0x00, 0x00, 0x04, 0x00, 0x00, 0x00, 0x00 };
