#define left_width 16
#define left_height 16
static unsigned char left_bits[] = {
   0x40, 0x00, 0x60, 0x00, 0xf0, 0x07, 0xf8, 0x0f, 0xfc, 0x1f, 0xf8, 0x1f,
   0xf0, 0x3f, 0x60, 0x3e, 0x40, 0x3c, 0x00, 0x3c, 0x00, 0x3c, 0x00, 0x3c,
   0x00, 0x3c, 0x00, 0x3c, 0x00, 0x3c, 0x00, 0x00 };
