#define left20x20_width 20
#define left20x20_height 20
static unsigned char left20x20_bits[] = {
   0x00, 0x10, 0x00, 0x00, 0x30, 0x00, 0x00, 0x70, 0x00, 0x80, 0xff, 0x00,
   0xe0, 0xff, 0x01, 0xf0, 0xff, 0x03, 0xf0, 0xff, 0x01, 0xf8, 0xff, 0x00,
   0xf8, 0x71, 0x00, 0xf8, 0x30, 0x00, 0xf8, 0x10, 0x00, 0xf8, 0x00, 0x00,
   0xf8, 0x00, 0x00, 0xf8, 0x00, 0x00, 0xf8, 0x00, 0x00, 0xf8, 0x00, 0x00,
   0xf8, 0x00, 0x00, 0xf8, 0x00, 0x00, 0xf8, 0x00, 0x00, 0x00, 0x00, 0x00 };
