#define right20x20_width 20
#define right20x20_height 20
static unsigned char right20x20_bits[] = {
   0x80, 0x00, 0x00, 0xc0, 0x00, 0x00, 0xe0, 0x00, 0x00, 0xf0, 0x1f, 0x00,
   0xf8, 0x7f, 0x00, 0xfc, 0xff, 0x00, 0xf8, 0xff, 0x00, 0xf0, 0xff, 0x01,
   0xe0, 0xf8, 0x01, 0xc0, 0xf0, 0x01, 0x80, 0xf0, 0x01, 0x00, 0xf0, 0x01,
   0x00, 0xf0, 0x01, 0x00, 0xf0, 0x01, 0x00, 0xf0, 0x01, 0x00, 0xf0, 0x01,
   0x00, 0xf0, 0x01, 0x00, 0xf0, 0x01, 0x00, 0xf0, 0x01, 0x00, 0x00, 0x00 };
