#define right_width 16
#define right_height 16
static unsigned char right_bits[] = {
   0x00, 0x02, 0x00, 0x06, 0xe0, 0x0f, 0xf0, 0x1f, 0xf8, 0x3f, 0xf8, 0x1f,
   0xfc, 0x0f, 0x7c, 0x06, 0x3c, 0x02, 0x3c, 0x00, 0x3c, 0x00, 0x3c, 0x00,
   0x3c, 0x00, 0x3c, 0x00, 0x3c, 0x00, 0x00, 0x00 };
