#define right8x8_width 8
#define right8x8_height 8
static unsigned char right8x8_bits[] = {
   0x08, 0x0c, 0x3e, 0x6c, 0x48, 0x40, 0x40, 0x00 };
